<svg width="35" height="35" viewBox="0 0 35 35" fill="none" xmlns="http://www.w3.org/2000/svg">
<path d="M17.5003 2.91663C15.5852 2.91663 13.6889 3.29384 11.9195 4.02672C10.1502 4.7596 8.54254 5.8338 7.18835 7.18799C4.45345 9.92289 2.91699 13.6322 2.91699 17.5C2.91699 23.9458 7.10241 29.4145 12.892 31.3541C13.6212 31.4708 13.8545 31.0187 13.8545 30.625V28.1604C9.81491 29.0354 8.95449 26.2062 8.95449 26.2062C8.28366 24.5145 7.33574 24.0625 7.33574 24.0625C6.00866 23.1583 7.43783 23.1875 7.43783 23.1875C8.89616 23.2895 9.66908 24.6895 9.66908 24.6895C10.9378 26.9062 13.0816 26.25 13.9128 25.9C14.0441 24.952 14.4232 24.3104 14.8316 23.9458C11.5941 23.5812 8.19616 22.327 8.19616 16.7708C8.19616 15.152 8.75033 13.8541 9.69824 12.8187C9.55241 12.4541 9.04199 10.9375 9.84408 8.96871C9.84408 8.96871 11.0691 8.57496 13.8545 10.4562C15.0066 10.1354 16.2607 9.97496 17.5003 9.97496C18.7399 9.97496 19.9941 10.1354 21.1462 10.4562C23.9316 8.57496 25.1566 8.96871 25.1566 8.96871C25.9587 10.9375 25.4482 12.4541 25.3024 12.8187C26.2503 13.8541 26.8045 15.152 26.8045 16.7708C26.8045 22.3416 23.392 23.5666 20.1399 23.9312C20.6649 24.3833 21.1462 25.2729 21.1462 26.6291V30.625C21.1462 31.0187 21.3795 31.4854 22.1232 31.3541C27.9128 29.4 32.0837 23.9458 32.0837 17.5C32.0837 15.5848 31.7064 13.6885 30.9736 11.9192C30.2407 10.1498 29.1665 8.54217 27.8123 7.18799C26.4581 5.8338 24.8505 4.7596 23.0811 4.02672C21.3118 3.29384 19.4154 2.91663 17.5003 2.91663Z" fill="#242425"/>
</svg>
