<svg width="35" height="35" viewBox="0 0 35 35" fill="none" xmlns="http://www.w3.org/2000/svg">
<path d="M16.2447 20.5012C15.6059 20.5012 15.2341 20.0725 15.2341 18.9583V15.0266L17.3574 15.19L17.4653 14.1779L15.2837 14.2858V12.0545H14.6449C14.3299 13.806 13.538 14.4433 12.4749 14.5512V15.082H13.7422V19.5475C13.7422 20.7666 14.5997 21.401 15.657 21.401C16.5101 21.401 17.4099 21.0291 17.7249 20.2883L17.4085 19.9164C17.2509 20.1789 16.8222 20.5012 16.2447 20.5012ZM11.1493 19.3302C10.7205 20.3364 10.0307 20.3933 9.34095 20.3933H7.1097C6.36887 20.3933 6.04658 20.122 6.04658 19.4891V16.1962C6.04658 16.1962 7.63908 16.1962 8.17137 16.2531C8.59574 16.3041 8.81012 16.412 8.96762 16.9429L9.12512 17.6881H9.76387L9.70699 15.7791L9.81491 13.9154H9.18199L8.96762 14.7685C8.86116 15.3504 8.75324 15.4073 8.17137 15.5093C7.43053 15.5648 6.04658 15.5648 6.04658 15.5648V11.636C6.04658 11.4727 6.04658 11.4216 6.31637 11.4216H9.65741C10.2437 11.4216 10.5616 11.897 10.7701 12.8508L10.9845 13.5975H11.5664C11.6232 11.4727 11.6743 10.5729 11.6743 10.5729C11.6743 10.5729 10.2437 10.726 9.39637 10.726H5.14824L2.91699 10.6808V11.2627L3.65783 11.4187C4.19303 11.5266 4.35053 11.6331 4.35053 12.1085C4.35053 12.1085 4.40741 13.5435 4.40741 15.9279C4.40741 18.3181 4.35053 19.7531 4.35053 19.7531C4.35053 20.1775 4.19303 20.335 3.65783 20.4429L2.91699 20.6077V21.1852L5.19928 21.1341H9.02449C9.87178 21.1341 11.8901 21.1852 11.8901 21.1852C11.9397 20.6587 12.2051 18.321 12.262 18.0556H11.7253L11.1493 19.3302ZM19.9576 15.5064C19.9576 14.8152 20.5949 14.5512 21.2337 14.5512C21.7587 14.5512 22.1859 14.7656 22.2968 15.0252L22.6687 16.0883L23.1951 16.0373C23.1951 15.5064 23.2505 14.8152 23.357 14.2858C22.8787 14.0714 21.9235 13.9635 21.2847 13.9635C19.8497 13.9635 18.737 14.6066 18.737 15.9862C18.737 18.4275 22.2953 17.8966 22.2953 19.7035C22.2953 20.2854 21.922 20.7666 21.0178 20.7666C20.1705 20.7666 19.7972 20.3379 19.6397 19.9135L19.2168 18.9029H18.6787C18.737 19.597 18.7866 20.2854 18.6787 20.9183C18.6787 20.9183 19.7972 21.347 20.9114 21.347C22.4018 21.347 23.621 20.6077 23.621 19.2223C23.621 16.781 19.9576 17.15 19.9576 15.5064ZM29.2457 14.1283V14.6591L29.6234 14.767C29.9909 14.8691 30.1484 15.0266 30.1484 15.2964C30.1484 15.4539 30.0989 15.5064 30.042 15.7208C29.8845 16.1452 28.8724 18.6418 28.3474 19.756C27.7865 18.3336 27.255 16.8998 26.7534 15.4554C26.7024 15.3489 26.7024 15.2979 26.7024 15.2425C26.7024 15.0266 26.8555 14.8166 27.2289 14.767L27.7087 14.6591V14.1283L25.7457 14.2348L24.1474 14.1779V14.7145L24.4201 14.8152C24.7862 14.9231 24.8387 14.9756 25.1041 15.5618C26.1147 17.7931 27.2289 20.7083 27.6066 21.6139C26.7549 23.1 25.8507 23.5229 25.1609 23.5229C24.7366 23.5229 24.5791 23.3085 24.5266 23.0431L24.3137 21.9304L23.7303 21.9814C23.6239 22.677 23.5159 23.4164 23.3584 23.9983C23.777 24.2637 24.2568 24.427 24.8941 24.4256C25.9018 24.4256 27.3368 24.1602 28.7193 21.0248L31.0541 15.5604C31.2655 15.1331 31.3195 15.0806 31.8503 14.8662L32.1172 14.6562V14.1283L30.7391 14.1779L29.2457 14.1283Z" fill="#242425"/>
</svg>
