<svg width="35" height="35" viewBox="0 0 35 35" fill="none" xmlns="http://www.w3.org/2000/svg">
<path d="M10.7246 16.1977V13.8571C10.7246 13.7185 10.7246 13.6631 10.9054 13.6631C12.4557 13.6631 13.7157 13.5712 14.3413 13.9402C14.9684 14.3077 14.9946 14.8152 15.0048 14.9669C15.015 15.1185 15.0107 15.3358 14.719 15.8652C14.4273 16.3946 13.1221 16.4048 12.18 16.4048H10.9332C10.78 16.4048 10.7246 16.3494 10.7246 16.1977ZM15.0209 18.6506C15.1653 18.835 15.2684 19.0483 15.3232 19.276C15.3779 19.5037 15.3831 19.7405 15.3383 19.9704C15.2934 20.2003 15.1997 20.4179 15.0634 20.6083C14.9271 20.7988 14.7515 20.9577 14.5484 21.0744C14.25 21.1999 13.93 21.2658 13.6063 21.2683H10.9186C10.78 21.2683 10.7246 21.2683 10.7246 21.0889V18.3181C10.7246 18.1796 10.7246 18.1242 10.9054 18.1242H12.6919C13.8002 18.1242 14.4929 18.0279 15.0209 18.6506Z" fill="#242425"/>
<path d="M24.7753 17.3673C24.701 17.1921 24.5882 17.0359 24.4453 16.9102C24.3025 16.7844 24.1331 16.6925 23.9499 16.6411C23.5836 16.541 23.2003 16.5198 22.8252 16.5789C22.4501 16.638 22.0918 16.776 21.774 16.9838C21.4574 17.3038 21.2527 17.7177 21.1907 18.1636C21.1907 18.3196 21.1907 18.3488 21.3759 18.3488H24.8322C25.0028 18.3488 25.0028 18.3488 24.9882 18.1344C24.9719 17.8664 24.9003 17.605 24.7753 17.3673ZM24.7753 17.3673C24.701 17.1921 24.5868 17.0359 24.4439 16.9102C24.301 16.7844 24.1331 16.6925 23.9499 16.6411C23.5836 16.541 23.2003 16.5198 22.8252 16.5789C22.4501 16.638 22.0918 16.776 21.774 16.9838C21.4574 17.3038 21.2513 17.7177 21.1893 18.1636C21.1893 18.3196 21.1893 18.3488 21.3745 18.3488H24.8322C25.0028 18.3488 25.0028 18.3488 24.9882 18.1344C24.9719 17.8664 24.8974 17.605 24.7724 17.3673M26.3955 3.64587H9.33301C7.82459 3.64587 6.37795 4.24509 5.31134 5.3117C4.24472 6.37832 3.64551 7.82496 3.64551 9.33337V26.3959C3.64551 27.9043 4.24472 29.3509 5.31134 30.4175C6.37795 31.4842 7.82459 32.0834 9.33301 32.0834H26.3955C27.9039 32.0834 29.3506 31.4842 30.4172 30.4175C31.4838 29.3509 32.083 27.9043 32.083 26.3959V9.33337C32.083 7.82496 31.4838 6.37832 30.4172 5.3117C29.3506 4.24509 27.9039 3.64587 26.3955 3.64587ZM20.8218 12.7021C20.8218 12.5898 20.8218 12.5461 20.9501 12.5461H25.557V13.7419C25.557 13.7419 25.5613 13.8265 25.4855 13.8265H21.0215C20.8218 13.8265 20.8218 13.8265 20.8218 13.6282V12.7021ZM16.5561 23.154C14.8061 24.1063 11.8647 23.7227 8.38072 23.7227V11.935H13.9399C15.3618 11.935 17.0534 12.2909 17.5084 13.7973C17.7447 14.4553 17.7303 15.1772 17.468 15.8253C17.2057 16.4733 16.7139 17.002 16.0865 17.3105C16.6649 17.5245 17.1697 17.8997 17.5415 18.3917C17.9132 18.8837 18.1362 19.4719 18.184 20.0866C18.2319 20.7014 18.1027 21.317 17.8116 21.8606C17.5205 22.4042 17.0798 22.8531 16.5416 23.154H16.5561ZM27.1495 19.7984H21.462C21.3059 19.7984 21.163 19.883 21.1907 20.0827C21.3613 20.9213 21.7449 21.8036 22.614 21.9319C23.073 22.0685 23.5645 22.0475 24.0101 21.8723C24.4557 21.697 24.8298 21.3777 25.0728 20.965C25.0728 20.965 25.1443 20.879 25.1866 20.879H27.0357C27.0357 20.879 27.1495 20.879 27.1203 20.9782C26.9253 21.5304 26.6367 22.0449 26.2672 22.4992C25.773 22.9713 25.1766 23.3231 24.5244 23.5274C23.8722 23.7317 23.1816 23.7829 22.5064 23.6771C21.8312 23.5714 21.1894 23.3114 20.631 22.9174C20.0725 22.5234 19.6123 22.0061 19.2861 21.4055C19.0855 21.0049 18.9605 20.5709 18.9172 20.125C18.6635 19.0044 18.8574 17.8291 19.4575 16.8493C20.0575 15.8695 21.0164 15.1627 22.1299 14.8794C25.3572 14.1823 27.4047 16.4005 27.4047 19.5286C27.4095 19.5651 27.4058 19.6023 27.3939 19.6372C27.382 19.6721 27.3623 19.7039 27.3362 19.7299C27.3102 19.756 27.2784 19.7757 27.2435 19.7876C27.2086 19.7995 27.1714 19.8032 27.1349 19.7984H27.1495ZM23.9645 16.6411C23.5985 16.5396 23.2149 16.5187 22.8401 16.5798C22.4653 16.6382 22.1299 16.7096 21.7886 16.9838C21.4474 17.2565 21.2666 17.7173 21.2053 18.1636C21.2053 18.3196 21.2053 18.3488 21.3905 18.3488H24.8322C25.0028 18.3488 25.0028 18.3488 24.9882 18.1344C24.9719 17.8664 24.9003 17.605 24.7753 17.3673C24.701 17.1921 24.5882 17.0359 24.4453 16.9102C24.3025 16.7844 24.1331 16.6925 23.9499 16.6411H23.9645Z" fill="#242425"/>
</svg>
