<svg width="25" height="25" viewBox="0 0 25 25" fill="none" xmlns="http://www.w3.org/2000/svg">
<path d="M11.4448 9.91543C11.3708 9.91804 11.297 9.90571 11.2278 9.87918C11.1586 9.85264 11.0955 9.81244 11.0421 9.76098C10.9888 9.70952 10.9464 9.64784 10.9175 9.57964C10.8885 9.51143 10.8736 9.43809 10.8736 9.364C10.8736 9.2899 10.8885 9.21656 10.9175 9.14835C10.9464 9.08015 10.9888 9.01847 11.0421 8.96701C11.0955 8.91555 11.1586 8.87535 11.2278 8.84881C11.297 8.82228 11.3708 8.80995 11.4448 8.81256L15.6066 8.81256C15.7528 8.81266 15.893 8.87078 15.9964 8.97418C16.0998 9.07757 16.1579 9.21777 16.158 9.364L16.158 13.5257C16.1606 13.5998 16.1483 13.6736 16.1218 13.7428C16.0952 13.812 16.055 13.8751 16.0036 13.9284C15.9521 13.9817 15.8904 14.0241 15.8222 14.0531C15.754 14.0821 15.6807 14.097 15.6066 14.097C15.5325 14.097 15.4591 14.0821 15.3909 14.0531C15.3227 14.0241 15.261 13.9817 15.2096 13.9284C15.1581 13.8751 15.1179 13.812 15.0914 13.7428C15.0649 13.6736 15.0525 13.5998 15.0551 13.5257L15.0551 10.6958L10.0142 15.7367C9.91075 15.8401 9.77041 15.8983 9.62407 15.8983C9.47773 15.8983 9.33738 15.8401 9.2339 15.7367C9.13043 15.6332 9.07229 15.4928 9.07229 15.3465C9.07229 15.2002 9.13042 15.0598 9.2339 14.9563L14.2748 9.91543L11.4448 9.91543Z" fill="#1037D4"/>
</svg>
